# xmcd
#
# Track frame offsets: 
#        150
#        12020
#        20499
#        33396
#        57602
#        82910
#        93494
#        113592
#        128834
#        146036
#        161243
#        174878
#        187576
#        200409
#        216207
#        224863
#        235525
#        259144
#
# Disc length: 4440 seconds
#
# Revision: 1
# Processed by: cddbd v1.5.2PL0 Copyright (c) Steve Scherf et al.
# Submitted via: ExactAudioCopy v1.0b4
#
DISCID=f6115612
DTITLE=Jan De Wilde - The Essential Of Jan De Wilde
DYEAR=2003
DGENRE=Acoustic
TTITLE0=Héhé (versie prima la musica)
TTITLE1=Favoriete Beest
TTITLE2=Zussen
TTITLE3=De Fanfare Van Honger En Dorst
TTITLE4=Walter, Ballade Van Een Goudvis
TTITLE5=Anneke Weemaes
TTITLE6=Eerste Sneeuw
TTITLE7=Kat En Ik
TTITLE8=Golden Retriever
TTITLE9=Slaapliedje
TTITLE10=Leve Loemoemba (versie prima la musica)
TTITLE11=Dag, Meneer De Wilde
TTITLE12=Na Nieuwjaar
TTITLE13=Pauvre Ruteboeuf
TTITLE14=Moordenaar
TTITLE15=Otomobiel
TTITLE16=De Aaigemberg (versie prima la musica)
TTITLE17=Data-track
EXTD=
EXTT0=
EXTT1=
EXTT2=
EXTT3=
EXTT4=
EXTT5=
EXTT6=
EXTT7=
EXTT8=
EXTT9=
EXTT10=
EXTT11=
EXTT12=
EXTT13=
EXTT14=
EXTT15=
EXTT16=
EXTT17=
PLAYORDER=
